<svg width="40" height="41" viewBox="0 0 40 41" fill="none" xmlns="http://www.w3.org/2000/svg">
<circle cx="20" cy="20.4392" r="20" fill="#435389"/>
<path d="M19.5658 17.2554C18.2837 17.2554 17.2443 18.2947 17.2443 19.5768C17.2443 20.8589 18.2837 21.8983 19.5658 21.8983C20.8479 21.8983 21.8872 20.8589 21.8872 19.5768C21.8872 18.2947 20.8479 17.2554 19.5658 17.2554Z" fill="white"/>
<path fill-rule="evenodd" clip-rule="evenodd" d="M15.8297 13.2065C18.2927 12.9312 20.8389 12.9312 23.3018 13.2065C24.6578 13.358 25.7515 14.4264 25.9107 15.7872C26.2052 18.305 26.2052 20.8486 25.9107 23.3665C25.7515 24.7272 24.6578 25.7957 23.3018 25.9472C20.8389 26.2225 18.2927 26.2225 15.8297 25.9472C14.4737 25.7957 13.38 24.7272 13.2209 23.3665C12.9264 20.8486 12.9264 18.305 13.2209 15.7872C13.38 14.4264 14.4737 13.358 15.8297 13.2065ZM23.1372 15.2911C22.7427 15.2911 22.4229 15.6109 22.4229 16.0054C22.4229 16.3999 22.7427 16.7197 23.1372 16.7197C23.5317 16.7197 23.8515 16.3999 23.8515 16.0054C23.8515 15.6109 23.5317 15.2911 23.1372 15.2911ZM16.1729 19.5768C16.1729 17.703 17.6919 16.184 19.5658 16.184C21.4396 16.184 22.9586 17.703 22.9586 19.5768C22.9586 21.4507 21.4396 22.9697 19.5658 22.9697C17.6919 22.9697 16.1729 21.4507 16.1729 19.5768Z" fill="white"/>
</svg>
