<svg width="40" height="41" viewBox="0 0 40 41" fill="none" xmlns="http://www.w3.org/2000/svg">
<circle cx="20" cy="20.4392" r="20" fill="#435389"/>
<path d="M23.8335 14.85C23.8335 14.85 24.2585 15.2667 23.8335 14.85C23.2638 14.1997 22.9499 13.3645 22.9501 12.5H20.3751V22.8333C20.3553 23.3925 20.1192 23.9222 19.7166 24.3108C19.314 24.6994 18.7763 24.9166 18.2168 24.9167C17.0335 24.9167 16.0501 23.95 16.0501 22.75C16.0501 21.3167 17.4335 20.2417 18.8585 20.6833V18.05C15.9835 17.6667 13.4668 19.9 13.4668 22.75C13.4668 25.525 15.7668 27.5 18.2085 27.5C20.8251 27.5 22.9501 25.375 22.9501 22.75V17.5083C23.9943 18.2582 25.2479 18.6605 26.5335 18.6583V16.0833C26.5335 16.0833 24.9668 16.1583 23.8335 14.85Z" fill="white"/>
</svg>
