<svg width="40" height="41" viewBox="0 0 40 41" fill="none" xmlns="http://www.w3.org/2000/svg">
<circle cx="20" cy="20.4392" r="20" fill="#435389"/>
<path fill-rule="evenodd" clip-rule="evenodd" d="M16.4206 15.361C18.8032 15.1746 21.1967 15.1746 23.5794 15.361L25.1799 15.4862C26.0713 15.556 26.8006 16.2241 26.948 17.1061C27.3167 19.3129 27.3167 21.5656 26.948 23.7723C26.8006 24.6543 26.0713 25.3225 25.1799 25.3922L23.5794 25.5174C21.1967 25.7038 18.8032 25.7038 16.4206 25.5174L14.8201 25.3922C13.9286 25.3225 13.1993 24.6543 13.0519 23.7723C12.6832 21.5656 12.6832 19.3129 13.0519 17.1061C13.1993 16.2241 13.9286 15.556 14.8201 15.4862L16.4206 15.361ZM18.5714 22.2036V18.6748C18.5714 18.5083 18.7531 18.4054 18.8959 18.4911L21.8366 20.2555C21.9753 20.3387 21.9753 20.5397 21.8366 20.623L18.8959 22.3874C18.7531 22.4731 18.5714 22.3702 18.5714 22.2036Z" fill="white"/>
</svg>
